<svg
                className="object-contain tab:w-[319px] tab:h-[75px] h-14 w-36"
                xmlns="http://www.w3.org/2000/svg"
                width="318.993"
                height="74.6"
                viewBox="0 0 318.993 74.6"
              >
                <g
                  id="Group_706"
                  data-name="Group 706"
                  transform="translate(-165.636 -578.063)"
                >
                  <g
                    id="Group_701"
                    data-name="Group 701"
                    transform="translate(165.636 578.063)"
                  >
                    <g
                      id="Group_700"
                      data-name="Group 700"
                      transform="translate(22.964)"
                    >
                      <g id="Group_699" data-name="Group 699">
                        <path
                          id="Path_2441"
                          data-name="Path 2441"
                          d="M240.8,652.663a27.7,27.7,0,0,1-19.654-8.126l-9.505-9.509a4.8,4.8,0,1,1,6.795-6.791l9.505,9.506a18.184,18.184,0,0,0,25.715-25.718L231.292,589.66,192.753,628.2a4.805,4.805,0,1,1-6.8-6.8l41.936-41.935a4.807,4.807,0,0,1,6.8,0l25.761,25.761A27.779,27.779,0,0,1,240.8,652.663Z"
                          transform="translate(-184.552 -578.063)"
                          fill="#fff"
                        />
                      </g>
                    </g>
                    <path
                      id="Path_2442"
                      data-name="Path 2442"
                      d="M243.877,606.8a4.847,4.847,0,0,0-4.131-1.351l-14.515,2.242a4.806,4.806,0,0,0-2.665,8.147l2.74,2.739L206.272,637.61a18.183,18.183,0,0,1-25.714-25.716L206,586.456a4.8,4.8,0,0,0-6.8-6.795L173.763,605.1a27.792,27.792,0,1,0,39.3,39.306L232.1,625.371l2.739,2.739a4.806,4.806,0,0,0,8.147-2.665l2.242-14.515a5.018,5.018,0,0,0,.056-.736A4.805,4.805,0,0,0,243.877,606.8Z"
                      transform="translate(-165.636 -578.022)"
                      fill="#ed4c14"
                    />
                  </g>
                  <g
                    id="Group_705"
                    data-name="Group 705"
                    transform="translate(286.073 594.908)"
                  >
                    <g
                      id="Group_704"
                      data-name="Group 704"
                      transform="translate(38.327 0)"
                    >
                      <g id="Group_703" data-name="Group 703">
                        <g id="Group_702" data-name="Group 702">
                          <path
                            id="Path_2443"
                            data-name="Path 2443"
                            d="M304.87,642.492q0,4.2-4.194,4.194h-4.257V614.529c.444-10.042,5.656-15,15.761-15q15.635,0,15.635,16.97c0,11.439-4.449,17.35-13.409,17.667a10.493,10.493,0,0,1-9.534-5.21Zm7.182-15.888c4.577,0,6.927-3.241,7.119-9.725,0-6.8-2.416-10.168-7.245-10.168s-7.117,3.369-7.056,10.168C305.124,623.363,307.476,626.6,312.051,626.6Z"
                            transform="translate(-296.418 -590.315)"
                            fill="#fff"
                          />
                          <path
                            id="Path_2444"
                            data-name="Path 2444"
                            d="M340.378,627.452c3.558,0,5.338-1.016,5.338-3.177,0-1.717-2.923-3.115-8.707-4.132-7.437-1.333-11.249-4.638-11.313-9.914,0-7.245,5.72-10.677,13.41-10.8q6.481,0,10.3,2.859a10.687,10.687,0,0,1,4,8.2h-5.338c-1.97-.064-3.241-.764-3.75-2.1-.573-1.462-2.288-2.288-5.085-2.288-3.3,0-4.958.889-4.958,2.605s2.162,3.051,6.547,3.878c5.72,1.143,9.47,2.605,11.313,4.32a8.352,8.352,0,0,1,2.351,5.975c0,8.262-6.483,11.312-15.38,11.312-4.7,0-8.263-1.016-10.55-2.986-2.542-1.907-3.813-4.83-3.813-8.706h8.643C333.577,626.181,336.245,627.452,340.378,627.452Z"
                            transform="translate(-290.358 -590.337)"
                            fill="#fff"
                          />
                          <path
                            id="Path_2445"
                            data-name="Path 2445"
                            d="M360.735,642.492q0,4.2-4.194,4.194h-4.258V614.529c.445-10.042,5.657-15,15.761-15q15.635,0,15.635,16.97c0,11.439-4.448,17.35-13.409,17.667a10.491,10.491,0,0,1-9.533-5.21Zm7.182-15.888c4.575,0,6.928-3.241,7.117-9.725,0-6.8-2.415-10.168-7.245-10.168s-7.117,3.369-7.054,10.168C360.99,623.363,363.34,626.6,367.917,626.6Z"
                            transform="translate(-284.465 -590.315)"
                            fill="#fff"
                          />
                          <path
                            id="Path_2446"
                            data-name="Path 2446"
                            d="M396.436,634.315c-10.168-.318-15.253-6.228-15.253-17.668s5.147-17.159,15.38-17.222c10.678,0,15.7,6.546,15.063,19.7H389.89c.318,5.149,2.543,7.754,6.673,7.754a7.812,7.812,0,0,0,5.466-2.415,3.7,3.7,0,0,1,2.859-1.208h6.229C409.274,630.376,404.7,634.315,396.436,634.315Zm-6.419-21.226h12.647c-.507-4.449-2.605-6.738-6.228-6.738S390.653,608.64,390.017,613.089Z"
                            transform="translate(-278.282 -590.337)"
                            fill="#fff"
                          />
                          <path
                            id="Path_2447"
                            data-name="Path 2447"
                            d="M417.96,596.069v39.086h-8.453V591.939h4.386A4.149,4.149,0,0,1,417.96,596.069Z"
                            transform="translate(-272.222 -591.939)"
                            fill="#fff"
                          />
                          <path
                            id="Path_2448"
                            data-name="Path 2448"
                            d="M429.9,596.069v39.086h-8.453V591.939h4.385A4.15,4.15,0,0,1,429.9,596.069Z"
                            transform="translate(-269.668 -591.939)"
                            fill="#fff"
                          />
                        </g>
                      </g>
                    </g>
                    <path
                      id="Path_2449"
                      data-name="Path 2449"
                      d="M294.654,591.939h-4.322V618.63c0,6.355-2.8,9.6-8.325,9.533s-8.325-3.241-8.325-9.533V591.939H269.3a4.718,4.718,0,0,0-4.449,4.638v23.07c0,10.932,6.1,16.142,17.159,16.142,10.869,0,17.1-5.53,17.1-16.142v-23.07A4.717,4.717,0,0,0,294.654,591.939Z"
                      transform="translate(-264.846 -591.939)"
                      fill="#fff"
                    />
                  </g>
                </g>
              </svg>